<svg xmlns="http://www.w3.org/2000/svg" viewBox="0 0 800 500" role="img" aria-labelledby="title desc">
  <title id="title">Threat Intelligence Dashboard</title>
  <desc id="desc">Interface stylisée présentant la réputation d'une adresse IP</desc>
  <rect width="800" height="500" fill="#07110f"/>
  <path d="M0 80h800M0 160h800M0 240h800M0 320h800M0 400h800M100 0v500M200 0v500M300 0v500M400 0v500M500 0v500M600 0v500M700 0v500" stroke="#203832" opacity=".4"/>
  <rect x="55" y="55" width="690" height="390" rx="18" fill="#0e1b18" stroke="#2c4b43"/>
  <circle cx="83" cy="83" r="7" fill="#ff6b6b"/>
  <circle cx="107" cy="83" r="7" fill="#f5c451"/>
  <circle cx="131" cy="83" r="7" fill="#32e6a1"/>
  <text x="166" y="90" fill="#9ab0a8" font-family="monospace" font-size="16">ioc-enrichment.py</text>
  <rect x="85" y="125" width="630" height="70" rx="10" fill="#07110f" stroke="#203832"/>
  <text x="110" y="153" fill="#32e6a1" font-family="monospace" font-size="14">TARGET</text>
  <text x="110" y="178" fill="#e6f1ed" font-family="monospace" font-size="22">185.220.101.42</text>
  <circle cx="651" cy="160" r="23" fill="#ff6b6b" opacity=".16"/>
  <text x="640" y="166" fill="#ff6b6b" font-family="monospace" font-size="18">72</text>
  <g font-family="monospace">
    <rect x="85" y="220" width="195" height="145" rx="10" fill="#12231f" stroke="#203832"/>
    <text x="105" y="250" fill="#38bdf8" font-size="14">VIRUSTOTAL</text>
    <text x="105" y="292" fill="#e6f1ed" font-size="30">18 / 92</text>
    <text x="105" y="329" fill="#9ab0a8" font-size="13">engines flagged</text>
    <rect x="302" y="220" width="195" height="145" rx="10" fill="#12231f" stroke="#203832"/>
    <text x="322" y="250" fill="#38bdf8" font-size="14">ABUSEIPDB</text>
    <text x="322" y="292" fill="#e6f1ed" font-size="30">86%</text>
    <text x="322" y="329" fill="#9ab0a8" font-size="13">confidence score</text>
    <rect x="519" y="220" width="196" height="145" rx="10" fill="#12231f" stroke="#203832"/>
    <text x="539" y="250" fill="#38bdf8" font-size="14">OTX PULSES</text>
    <text x="539" y="292" fill="#e6f1ed" font-size="30">12</text>
    <text x="539" y="329" fill="#9ab0a8" font-size="13">related campaigns</text>
    <text x="85" y="408" fill="#32e6a1" font-size="15">&gt; verdict: HIGH RISK_</text>
  </g>
</svg>
